<?xml version="1.0" standalone="no"?>
<!DOCTYPE svg PUBLIC "-//W3C//DTD SVG 20010904//EN"
 "http://www.w3.org/TR/2001/REC-SVG-20010904/DTD/svg10.dtd">
<svg version="1.0" xmlns="http://www.w3.org/2000/svg"
 width="700.000000pt" height="700.000000pt" viewBox="0 0 700.000000 700.000000"
 preserveAspectRatio="xMidYMid meet">
<metadata>
Created by potrace 1.11, written by Peter Selinger 2001-2013
</metadata>
<g transform="translate(0.000000,700.000000) scale(0.100000,-0.100000)"
fill="#000000" stroke="none">
<path d="M4117 6734 c-1 -1 -65 -4 -142 -8 -77 -3 -151 -8 -165 -10 -14 -2
-50 -7 -80 -11 -496 -58 -853 -224 -1036 -480 -66 -94 -138 -251 -160 -350
-42 -190 -47 -245 -48 -575 l-1 -295 -335 -2 c-184 -1 -353 -2 -376 -2 l-40
-1 0 -477 1 -478 195 0 195 0 5 -105 5 -105 167 0 c91 0 170 -4 175 -8 4 -5 8
-761 8 -1680 l0 -1672 180 -1 c230 -2 217 -1 214 -21 -1 -10 -1 -56 0 -103 l1
-85 700 0 700 0 0 1785 0 1785 475 0 475 0 0 477 0 478 -199 0 -200 0 1 100
c1 55 -2 103 -5 106 -3 3 -135 6 -293 6 l-287 -1 6 132 c6 147 7 149 37 229
27 72 97 151 164 185 62 32 149 62 196 69 19 3 48 7 64 11 71 14 329 18 471 7
l81 -6 -1 430 c0 237 -2 433 -5 435 -3 3 -49 8 -104 12 -54 4 -115 9 -135 10
-20 2 -62 4 -93 6 l-58 2 0 93 0 94 -42 1 c-24 0 -56 2 -73 4 -149 14 -627 28
-638 19z"/>
</g>
</svg>
